<svg width="32" height="32" viewBox="0 0 32 32" fill="none" xmlns="http://www.w3.org/2000/svg">
<g clip-path="url(#clip0_7304_628)">
<path d="M23.3334 23.1453C24.0039 23.1453 24.647 22.8795 25.1219 22.4062C25.5968 21.9328 25.8646 21.2905 25.8667 20.62C25.8663 20.2683 25.7964 19.9201 25.6612 19.5955C25.526 19.2708 25.3281 18.976 25.0787 18.728L23.4 17.048V12.0573C23.3999 11.086 23.2083 10.1243 22.8362 9.22709C22.4642 8.32989 21.9189 7.5148 21.2317 6.82843C20.5444 6.14205 19.7287 5.59785 18.831 5.22692C17.9333 4.85599 16.9713 4.66561 16 4.66666C14.0405 4.66772 12.1615 5.4468 10.7762 6.83267C9.3908 8.21854 8.6124 10.0978 8.61204 12.0573V17.044L6.93338 18.724C6.68385 18.972 6.48569 19.2667 6.35025 19.5914C6.2148 19.916 6.14473 20.2642 6.14404 20.616C6.14616 21.2865 6.414 21.9288 6.88886 22.4022C7.36372 22.8755 8.00688 23.1413 8.67738 23.1413L23.3334 23.1453Z" stroke="#1C1C1C" stroke-width="1.5" stroke-linecap="round" stroke-linejoin="round"/>
<path d="M14.028 27.3333H17.9706" stroke="#1C1C1C" stroke-width="1.5" stroke-linecap="round" stroke-linejoin="round"/>
</g>
<defs>
<clipPath id="clip0_7304_628">
<rect width="32" height="32" fill="white"/>
</clipPath>
</defs>
</svg>
